<?xml version="1.0" encoding="utf-8"?>
<!-- Generator: Adobe Illustrator 18.0.0, SVG Export Plug-In . SVG Version: 6.00 Build 0)  -->
<!DOCTYPE svg PUBLIC "-//W3C//DTD SVG 1.1//EN" "http://www.w3.org/Graphics/SVG/1.1/DTD/svg11.dtd">
<svg version="1.1" id="Layer_1" xmlns="http://www.w3.org/2000/svg" xmlns:xlink="http://www.w3.org/1999/xlink" x="0px" y="0px"
	 viewBox="0 0 200 200" enable-background="new 0 0 200 200" xml:space="preserve">
<g>
	<rect x="76" y="14.9" fill="#F5F0E1" width="48" height="6.4"/>
	<path fill="#D66194" d="M112.7,80.3c-4.1,0-7.9,2.2-9.9,5.8c-0.6,1-1.6,1.6-2.8,1.6c-1.2,0-2.2-0.6-2.8-1.6c-2-3.6-5.8-5.8-9.9-5.8
		c-6.2,0-11.3,5.1-11.3,11.3c0,3.1,1.1,6.3,2.8,9.5h8c0-1.8,1.4-3.2,3.2-3.2h20.1c1.8,0,3.2,1.4,3.2,3.2l8,0
		c1.7-3.2,2.8-6.5,2.8-9.5C124,85.4,118.9,80.3,112.7,80.3z"/>
	<path fill="#A2496F" d="M110.1,104.4H89.9c-1.8,0-3.2-1.4-3.2-3.2h-8c5.2,9.8,16.5,19.4,21.2,23.2c4.7-3.8,16-13.3,21.2-23.2h-8
		C113.3,102.9,111.8,104.4,110.1,104.4z"/>
	<path fill="#D0E7DA" d="M69.6,91.6c0-9.8,7.9-17.7,17.7-17.7c4.8,0,9.4,2,12.7,5.4c3.3-3.4,7.8-5.4,12.7-5.4
		c9.8,0,17.7,7.9,17.7,17.7c0,3-0.7,6.2-2.1,9.5h7c0-1.8,1.4-3.2,3.2-3.2h39c8.9,0,16.2-7.3,16.2-16.2V43.4c0-1.6-1.3-3-3-3H9.3
		c-1.6,0-3,1.3-3,3v38.4c0,8.9,7.3,16.2,16.2,16.2h39c1.8,0,3.2,1.4,3.2,3.2l7,0C70.3,97.8,69.6,94.7,69.6,91.6z"/>
	<path fill="#ADC3B7" d="M6.4,107.4v74.7c0,1.6,1.3,3,3,3h181.3c1.6,0,3-1.3,3-3V97.5c-4.1,4.2-9.8,6.9-16.2,6.9h-39
		c-1.8,0-3.2-1.4-3.2-3.2h-7c-2.1,4.9-5.7,10.2-10.8,15.7c-6.5,7.1-13.6,12.6-15.6,14.1c-0.6,0.4-1.2,0.6-1.9,0.6s-1.3-0.2-1.9-0.6
		c-2-1.5-9.1-7-15.6-14.1c-5.1-5.6-8.7-10.8-10.8-15.7h-7c0,1.8-1.4,3.2-3.2,3.2h-39c-8.2,0-15.4-4.4-19.4-11v10.9
		C5,104.2,6.4,105.7,6.4,107.4z"/>
	<path fill="#422938" d="M89.9,104.4h20.1c1.8,0,3.2-1.4,3.2-3.2c0-1.8-1.4-3.2-3.2-3.2H89.9c-1.8,0-3.2,1.4-3.2,3.2
		C86.7,102.9,88.2,104.4,89.9,104.4z"/>
	<path fill="#422938" d="M190.7,34.1h-60.3V11.7c0-1.8-1.4-3.2-3.2-3.2H72.8c-1.8,0-3.2,1.4-3.2,3.2v22.3H9.3
		c-5.1,0-9.3,4.2-9.3,9.3v38.4C0,86,1.2,90,3.2,93.3c3.9,6.6,11.2,11,19.4,11h39c1.8,0,3.2-1.4,3.2-3.2c0-1.8-1.4-3.2-3.2-3.2h-39
		c-8.9,0-16.2-7.3-16.2-16.2V43.4c0-1.6,1.3-3,3-3h181.3c1.6,0,3,1.3,3,3v38.4c0,8.9-7.3,16.2-16.2,16.2h-39c-1.8,0-3.2,1.4-3.2,3.2
		c0,1.8,1.4,3.2,3.2,3.2h39c6.3,0,12.1-2.6,16.2-6.9v84.6c0,1.6-1.3,3-3,3H9.3c-1.6,0-3-1.3-3-3v-74.7c0-1.8-1.4-3.2-3.2-3.2
		c-1.8,0-3.2,1.4-3.2,3.2v74.7c0,5.1,4.2,9.3,9.3,9.3h181.3c5.1,0,9.3-4.2,9.3-9.3V43.4C200,38.3,195.8,34.1,190.7,34.1z M124,21.3
		H76v-6.4h48V21.3z M76,27.7h48v6.4H76V27.7z"/>
	<path fill="#422938" d="M112.7,73.9c-4.8,0-9.4,2-12.7,5.4c-3.3-3.4-7.8-5.4-12.7-5.4c-9.8,0-17.7,7.9-17.7,17.7
		c0,3,0.7,6.2,2.1,9.5c2.1,4.9,5.7,10.2,10.8,15.7C89,124,96.1,129.4,98.1,131c0.6,0.4,1.2,0.6,1.9,0.6s1.3-0.2,1.9-0.6
		c2-1.5,9.1-7,15.6-14.1c5.1-5.6,8.7-10.8,10.8-15.7c1.4-3.3,2.1-6.5,2.1-9.5C130.4,81.9,122.4,73.9,112.7,73.9z M121.2,101.2
		c-5.2,9.8-16.5,19.4-21.2,23.2c-4.7-3.8-16-13.3-21.2-23.2C77.1,98,76,94.7,76,91.6c0-6.2,5.1-11.3,11.3-11.3
		c4.1,0,7.9,2.2,9.9,5.8c0.6,1,1.6,1.6,2.8,1.6c1.2,0,2.2-0.6,2.8-1.6c2-3.6,5.8-5.8,9.9-5.8c6.2,0,11.3,5.1,11.3,11.3
		C124,94.7,122.9,98,121.2,101.2z"/>
</g>
</svg>
