<svg version="1.1" id="Layer_1" xmlns="http://www.w3.org/2000/svg" xmlns:xlink="http://www.w3.org/1999/xlink" x="0px" y="0px"
	 viewBox="0 0 24 24" style="enable-background:new 0 0 24 24;" xml:space="preserve">
	<style type="text/css">
		.st0{fill:url(#SVGID_1_);}
		.st1{fill:url(#SVGID_2_);}
		.st2{fill:url(#SVGID_3_);}
		.st3{fill:url(#SVGID_4_);}
		.st4{fill:url(#SVGID_5_);}
		.st5{fill:url(#SVGID_6_);}
		.st6{fill:url(#SVGID_7_);}
		.st7{fill:url(#SVGID_8_);}
		.st8{fill:url(#SVGID_9_);}
		.st9{fill:url(#SVGID_10_);}
		.st10{fill:url(#SVGID_11_);}
		.st11{fill:url(#SVGID_12_);}
		.st12{fill:url(#SVGID_13_);}
		.st13{fill:url(#SVGID_14_);}
		.st14{fill:url(#SVGID_15_);}
		.st15{fill:url(#SVGID_16_);}
		.st16{fill:url(#SVGID_17_);}
		.st17{fill:url(#SVGID_18_);}
		.st18{fill:url(#SVGID_19_);}
		.st19{fill:url(#SVGID_20_);}
	</style>
	<linearGradient id="SVGID_1_" gradientUnits="userSpaceOnUse" x1="2.2004" y1="12.7327" x2="20.5835" y2="12.7327">
		<stop  offset="0" style="stop-color:#1245C6"/>
		<stop  offset="1" style="stop-color:#9909B7"/>
	</linearGradient>
	<path class="st0" d="M20.5,6.2C20.4,6.1,20.3,6,20.2,6h-4l-0.9-2.2c-0.1-0.3-0.4-0.6-0.7-0.8c-0.3-0.2-0.7-0.3-1-0.3H9.3
	C9,2.7,8.6,2.8,8.3,3C7.9,3.3,7.7,3.5,7.6,3.9L6.7,6h-4c-0.1,0-0.2,0-0.3,0.1C2.2,6.2,2.2,6.3,2.2,6.5v0.8c0,0.1,0,0.2,0.1,0.3
	c0.1,0.1,0.2,0.1,0.3,0.1h1.3v12.4c0,0.7,0.2,1.3,0.6,1.8c0.4,0.5,0.9,0.8,1.5,0.8h10.9c0.6,0,1.1-0.3,1.5-0.8
	c0.4-0.5,0.6-1.2,0.6-1.9V7.7h1.3c0.1,0,0.2,0,0.3-0.1c0.1-0.1,0.1-0.2,0.1-0.3V6.5C20.6,6.3,20.5,6.2,20.5,6.2z M9.1,4.5
	c0.1-0.1,0.1-0.1,0.2-0.1h4.1c0.1,0,0.2,0.1,0.2,0.1L14.3,6H8.5L9.1,4.5z M17.2,20.1c0,0.2,0,0.4-0.1,0.5C17.1,20.8,17,20.9,17,21
	c-0.1,0.1-0.1,0.1-0.1,0.1H6c0,0-0.1,0-0.1-0.1c-0.1-0.1-0.1-0.2-0.2-0.4c-0.1-0.2-0.1-0.3-0.1-0.5V7.7h11.7L17.2,20.1L17.2,20.1z
	 M7.6,18.6h0.8c0.1,0,0.2,0,0.3-0.1c0.1-0.1,0.1-0.2,0.1-0.3v-7.5c0-0.1,0-0.2-0.1-0.3c-0.1-0.1-0.2-0.1-0.3-0.1H7.6
	c-0.1,0-0.2,0-0.3,0.1c-0.1,0.1-0.1,0.2-0.1,0.3v7.5c0,0.1,0,0.2,0.1,0.3C7.4,18.5,7.5,18.6,7.6,18.6z M11,18.6h0.8
	c0.1,0,0.2,0,0.3-0.1c0.1-0.1,0.1-0.2,0.1-0.3v-7.5c0-0.1,0-0.2-0.1-0.3c-0.1-0.1-0.2-0.1-0.3-0.1H11c-0.1,0-0.2,0-0.3,0.1
	c-0.1,0.1-0.1,0.2-0.1,0.3v7.5c0,0.1,0,0.2,0.1,0.3C10.8,18.5,10.9,18.6,11,18.6z M14.3,18.6h0.8c0.1,0,0.2,0,0.3-0.1
	c0.1-0.1,0.1-0.2,0.1-0.3v-7.5c0-0.1,0-0.2-0.1-0.3c-0.1-0.1-0.2-0.1-0.3-0.1h-0.8c-0.1,0-0.2,0-0.3,0.1c-0.1,0.1-0.1,0.2-0.1,0.3
	v7.5c0,0.1,0,0.2,0.1,0.3C14.1,18.5,14.2,18.6,14.3,18.6z"/>
</svg>
